<?xml version="1.0" encoding="utf-8"?><svg viewBox="0 0 1914 328" xmlns="http://www.w3.org/2000/svg" xmlns:xlink="http://www.w3.org/1999/xlink"><style>:root>svg{display:none}:root>svg:target{display:block}</style><svg viewBox="0 0 75 75" id="main_pac_icon" xmlns="http://www.w3.org/2000/svg"><path d="m34.212 31 10.625 2.847-2.33 8.693-10.624-2.847z"/><path d="m30.174 40.77 4.56-17.02c-4.848-.67-14.663-2.042-15.133-2.168-.469-.126-5.105 5.76-7.365 8.72l-.183 19.45 10.157 9.012 18.422-.725 6.821-11.382-17.279-5.887ZM44.42 34.522l4.288-18.35 11.958 6.978L62.6 39.393l-18.18-4.87Z"/><path d="M48.61 46.028c.657.176.985.264 1.212.48.187.18.33.46.366.717.044.31-.065.6-.284 1.178a19.618 19.618 0 1 1-15.187-26.306c.61.1.915.15 1.162.343.204.16.375.424.436.675.075.305-.013.633-.189 1.29l-4.062 15.159c-.177.663-.266.995-.205 1.283.054.253.186.483.379.656.218.197.55.286 1.213.463l15.16 4.062ZM48.14 17.469c.175-.657.263-.985.48-1.211a1.3 1.3 0 0 1 .716-.367c.31-.044.6.066 1.178.284A19.619 19.619 0 0 1 62.93 37.683c-.1.61-.15.915-.342 1.162-.16.204-.424.375-.676.437-.305.074-.633-.014-1.289-.19l-15.16-4.061c-.663-.178-.994-.267-1.213-.464a1.227 1.227 0 0 1-.379-.656c-.061-.288.028-.62.206-1.283l4.061-15.16Z" stroke="#fff" stroke-width="10.98" stroke-linecap="round" stroke-linejoin="round"/><path d="M48.61 46.028c.657.176.985.264 1.212.48.187.18.33.46.366.717.044.31-.065.6-.284 1.178a19.618 19.618 0 1 1-15.187-26.306c.61.1.915.15 1.162.343.204.16.375.424.436.675.075.305-.013.633-.189 1.29l-4.062 15.159c-.177.663-.266.995-.205 1.283.054.253.186.483.379.656.218.197.55.286 1.213.463l15.16 4.062ZM48.14 17.469c.175-.657.263-.985.48-1.211a1.3 1.3 0 0 1 .716-.367c.31-.044.6.066 1.178.284A19.619 19.619 0 0 1 62.93 37.683c-.1.61-.15.915-.342 1.162-.16.204-.424.375-.676.437-.305.074-.633-.014-1.289-.19l-15.16-4.061c-.663-.178-.994-.267-1.213-.464a1.227 1.227 0 0 1-.379-.656c-.061-.288.028-.62.206-1.283l4.061-15.16Z" stroke="#1D202C" stroke-width="3.66" stroke-linecap="round" stroke-linejoin="round"/></svg><svg viewBox="0 0 101 101" id="main_video_icon" xmlns="http://www.w3.org/2000/svg"><g clip-path="url(#ba)"><path d="m29.862 19.599 41.107 15.78-15.328 39.933-41.108-15.78z"/><path d="m64.385 49.022 15.269 5.861-4.96 12.92-15.268-5.861z"/><path d="M82.015 52.628c.67-1.747 1.006-2.621.816-3.158a1.545 1.545 0 0 0-1.017-.966c-.547-.161-1.401.22-3.111.98l-14.505 6.458 6.458 14.505c.761 1.71 1.142 2.565 1.656 2.81.446.213.968.2 1.402-.037.5-.272.836-1.145 1.507-2.892l6.794-17.7Z" stroke="#fff" stroke-width="11.238" stroke-linecap="round" stroke-linejoin="round"/><path d="M23.374 32.992c1.86-4.846 2.79-7.269 4.443-8.757a9.268 9.268 0 0 1 5.233-2.33c2.213-.233 4.635.697 9.48 2.557l15.574 5.979c4.846 1.86 7.269 2.79 8.758 4.443a9.267 9.267 0 0 1 2.33 5.232c.232 2.213-.698 4.636-2.558 9.481l-4.871 12.69c-1.86 4.846-2.79 7.268-4.444 8.757a9.268 9.268 0 0 1-5.232 2.33c-2.213.233-4.636-.698-9.482-2.558l-15.573-5.978c-4.846-1.86-7.268-2.79-8.757-4.443a9.267 9.267 0 0 1-2.33-5.233c-.232-2.212.698-4.635 2.558-9.48l4.87-12.69Z" stroke="#fff" stroke-width="11.238" stroke-linecap="round" stroke-linejoin="round"/><path d="M82.015 52.628c.67-1.747 1.006-2.621.816-3.158a1.545 1.545 0 0 0-1.017-.966c-.547-.161-1.401.22-3.111.98l-14.505 6.458 6.458 14.505c.761 1.71 1.142 2.565 1.656 2.81.446.213.968.2 1.402-.037.5-.272.836-1.145 1.507-2.892l6.794-17.7Z" stroke="#1D202C" stroke-width="4" stroke-linecap="round" stroke-linejoin="round"/><path d="M23.374 32.992c1.86-4.846 2.79-7.269 4.443-8.757a9.268 9.268 0 0 1 5.233-2.33c2.213-.233 4.635.697 9.48 2.557l15.574 5.979c4.846 1.86 7.269 2.79 8.758 4.443a9.267 9.267 0 0 1 2.33 5.232c.232 2.213-.698 4.636-2.558 9.481l-4.871 12.69c-1.86 4.846-2.79 7.268-4.444 8.757a9.268 9.268 0 0 1-5.232 2.33c-2.213.233-4.636-.698-9.482-2.558l-15.573-5.978c-4.846-1.86-7.268-2.79-8.757-4.443a9.267 9.267 0 0 1-2.33-5.233c-.232-2.212.698-4.635 2.558-9.48l4.87-12.69Z" stroke="#1D202C" stroke-width="4" stroke-linecap="round" stroke-linejoin="round"/></g><defs><clipPath id="ba"><path transform="rotate(21 13.976 75.41)" d="M0 0h78v78H0z"/></clipPath></defs></svg><svg viewBox="0 0 1914 111" id="menu_all2" xmlns="http://www.w3.org/2000/svg"><g clip-path="url(#ca)"><circle cx="1086" cy="-31.5" r="100" stroke="#F5F8FA"/><circle cx="1432" cy="131.5" r="75" stroke="#F5F8FA"/><circle cx="550.5" cy="131" r="105.5" stroke="#F5F8FA"/><circle cx="591" cy="149.5" r="84.5"/><circle cx="1156" cy="-28.5" r="67.5"/><circle cx="1289.5" cy="47" r="21"/><circle cx="506.5" cy="35" r="5"/><circle cx="1497" cy="62.5" r="90.5"/><circle cx="393.5" cy="-5" r="44"/></g><path d="M.5 1h1913v-2H.5v2Zm1913 109H.5v2h1913v-2Z" mask="url(#path-1-inside-1_11_3262)"/><defs><clipPath id="ca"><path d="M.5 0h1913v111H.5V0Z"/></clipPath></defs></svg><svg viewBox="0 0 9 9" id="menu_li_icon" xmlns="http://www.w3.org/2000/svg"><path d="M8 3.634a1 1 0 0 1 0 1.732L2 8.83a1 1 0 0 1-1.5-.866V1.036A1 1 0 0 1 2 .17l6 3.464Z"/></svg><svg viewBox="0 0 169 46" id="menu_vector1" xmlns="http://www.w3.org/2000/svg"><circle cx="84.5" cy="84.5" r="84.5"/></svg><svg viewBox="0 0 95 95" id="preloader" xmlns="http://www.w3.org/2000/svg"><g clip-path="url(#fa)"><path d="M47.982 0c-.315 0-.63.019-.946.093C31.172 3.154 21.45 18.98 24.214 35.124a30.156 30.156 0 0 0 2.95 8.795L5.937 41.563h-.482A5.464 5.464 0 0 0 0 47.017c0 .315.019.63.093.946C3.154 63.828 18.98 73.55 35.124 70.786a30.156 30.156 0 0 0 8.795-2.95l-2.356 21.227v.482A5.464 5.464 0 0 0 47.017 95c.315 0 .63-.019.946-.093C63.828 91.846 73.55 76.02 70.786 59.876a30.156 30.156 0 0 0-2.95-8.795l21.227 2.356h.482A5.464 5.464 0 0 0 95 47.983c0-.315-.019-.63-.093-.946C91.846 31.172 76.02 21.45 59.876 24.214a30.156 30.156 0 0 0-8.795 2.95l2.356-21.227v-.482A5.464 5.464 0 0 0 47.983 0ZM47.5 53.438a5.931 5.931 0 0 1-5.938-5.938 5.931 5.931 0 0 1 5.938-5.938 5.931 5.931 0 0 1 5.938 5.938 5.931 5.931 0 0 1-5.938 5.938Z"/></g><defs><clipPath id="fa"><path d="M0 0h95v95H0z"/></clipPath></defs></svg><svg viewBox="0 0 22 22" id="star-btn-icon" xmlns="http://www.w3.org/2000/svg"><path d="M9.228 18.313c-.961-2.027-1.771-3.71-1.8-3.74-.03-.03-1.714-.84-3.741-1.801C1.659 11.81 0 11.013 0 11c0-.013 1.659-.81 3.687-1.772 2.027-.961 3.71-1.771 3.74-1.8.03-.03.84-1.714 1.801-3.741C10.19 1.659 10.987 0 11 0c.013 0 .81 1.659 1.772 3.687.961 2.027 1.771 3.71 1.8 3.74.03.03 1.713.84 3.741 1.801S22 10.987 22 11c0 .013-1.659.81-3.687 1.772-2.027.961-3.71 1.771-3.74 1.8-.03.03-.84 1.713-1.801 3.741S11.013 22 11 22c-.013 0-.81-1.659-1.772-3.687Z"/></svg><svg viewBox="0 0 796 328" id="today-arrow-1" xmlns="http://www.w3.org/2000/svg"><path d="M-10.773 43.409c55.831 66.304 176.136 163.306 307.687 161.288m0 0c49.915-.766 101.448-15.787 151.694-52.15 228.335-165.25-23.137-208.882-134.87-60.607-27.938 37.074-31.604 76.765-16.824 112.757Zm0 0c44.331 107.956 254.606 182.646 473.632 53.7m-20.839-20.262c57.862 22.101 53.605-16.432 24.967 50.722" stroke="#E6EAF1" stroke-linecap="round"/></svg></svg>